<svg width="315" height="280" viewBox="0 0 315 280" fill="none" xmlns="http://www.w3.org/2000/svg">
<path d="M132.823 124.018C144.865 123.532 154.996 132.953 155.384 144.999C155.772 157.045 146.269 167.099 134.22 167.39C122.309 167.676 112.395 158.305 112.011 146.397C111.627 134.488 120.918 124.498 132.823 124.018Z" fill="black"/>
<path d="M225.049 125.493C236.264 123.305 247.114 130.667 249.224 141.897C251.334 153.127 243.899 163.928 232.654 165.962C221.519 167.975 210.844 160.626 208.754 149.505C206.664 138.384 213.939 127.661 225.049 125.493Z" fill="black"/>
<path fill-rule="evenodd" clip-rule="evenodd" d="M258 39C266.837 39 274 46.1634 274 55V58C274 71.8071 285.193 83 299 83C307.837 83 315 90.1634 315 99V221C315 229.837 307.837 237 299 237C285.193 237 274 248.193 274 262V264C274 272.837 266.837 280 258 280H57C48.1634 280 41 272.837 41 264V262C41 248.193 29.8071 237 16 237C7.16344 237 2.06155e-07 229.837 0 221V99C0 90.1634 7.16344 83 16 83C29.8071 83 41 71.8071 41 58V55C41 46.1634 48.1634 39 57 39H258ZM70 98C61.1634 98 54 105.163 54 114V205C54 213.837 61.1634 221 70 221H246C254.837 221 262 213.837 262 205V114C262 105.163 254.837 98 246 98H70Z" fill="black"/>
<path d="M41 16C41 7.16344 48.1634 0 57 0H76C84.8366 0 92 7.16344 92 16V49C92 57.8366 84.8366 65 76 65H57C48.1634 65 41 57.8366 41 49V16Z" fill="black"/>
</svg>
